<svg xmlns="http://www.w3.org/2000/svg" width="1600" height="2400" viewBox="0 0 1600 2400" role="img" aria-labelledby="title desc">
  <title id="title">Когнитивное инженерство</title>
  <desc id="desc">Обложка учебника о проектировании мышления, действия, среды и восстановления.</desc>
  <rect width="1600" height="2400" fill="#f8fafc"/>
  <rect x="110" y="110" width="1380" height="2180" fill="#ffffff" stroke="#111827" stroke-width="6"/>
  <rect x="168" y="168" width="1264" height="2064" fill="none" stroke="#94a3b8" stroke-width="2"/>
  <g fill="none" stroke="#334155" stroke-width="10" stroke-linecap="round" stroke-linejoin="round" opacity="0.95">
    <path d="M395 650h260c130 0 210 80 210 190s-80 190-210 190H395z"/>
    <path d="M735 650h260c130 0 210 80 210 190s-80 190-210 190H735"/>
    <path d="M585 1030v230"/>
    <path d="M1015 1030v230"/>
    <path d="M585 1260h430"/>
    <path d="M800 1260v240"/>
    <circle cx="800" cy="1565" r="66"/>
  </g>
  <text x="800" y="1720" text-anchor="middle" font-family="Noto Sans, DejaVu Sans, Arial, sans-serif" font-size="104" font-weight="700" fill="#111827">Когнитивное</text>
  <text x="800" y="1840" text-anchor="middle" font-family="Noto Sans, DejaVu Sans, Arial, sans-serif" font-size="104" font-weight="700" fill="#111827">инженерство</text>
  <text x="800" y="1945" text-anchor="middle" font-family="Noto Sans, DejaVu Sans, Arial, sans-serif" font-size="39" fill="#374151">учебник о проектировании мышления, действия,</text>
  <text x="800" y="2005" text-anchor="middle" font-family="Noto Sans, DejaVu Sans, Arial, sans-serif" font-size="39" fill="#374151">среды, восстановления и работы с инструментами</text>
</svg>
